<svg fill="none" height="32" viewBox="0 0 32 32" width="32" xmlns="http://www.w3.org/2000/svg" xmlns:xlink="http://www.w3.org/1999/xlink"><linearGradient id="a" gradientUnits="userSpaceOnUse" x1="12.4809" x2="12.4809" y1="2" y2="22.7407"><stop offset="0" stop-color="#327ebd"/><stop offset="1" stop-color="#1565a7"/></linearGradient><linearGradient id="b" gradientUnits="userSpaceOnUse" x1="19.519" x2="19.519" y1="9.25928" y2="30"><stop offset="0" stop-color="#ffda4b"/><stop offset="1" stop-color="#f9c600"/></linearGradient><g clip-rule="evenodd" fill-rule="evenodd"><path d="m13.0164 2c-2.1971 0-3.97815 1.72453-3.97815 3.85185v2.66667h6.88525v.74074h-9.94536c-2.19707 0-3.97814 1.72454-3.97814 3.85184v5.7778c0 2.1273 1.78107 3.8518 3.97814 3.8518h2.29508v-3.2592c0-2.1273 1.78108-3.8519 3.97818-3.8519h7.3442c1.8591 0 3.3661-1.4592 3.3661-3.2592v-6.51855c0-2.12732-1.781-3.85185-3.9781-3.85185zm-.918 4.74074c.7605 0 1.377-.59696 1.377-1.33333 0-.73638-.6165-1.33334-1.377-1.33334-.7606 0-1.3771.59696-1.3771 1.33334 0 .73637.6165 1.33333 1.3771 1.33333z" fill="url(#a)"/><path d="m18.9834 30c2.1971 0 3.9782-1.7245 3.9782-3.8518v-2.6667h-6.8853v-.7407h9.9454c2.1971 0 3.9781-1.7246 3.9781-3.8519v-5.7778c0-2.1273-1.781-3.85182-3.9781-3.85182h-2.2951v3.25922c0 2.1274-1.7811 3.8519-3.9781 3.8519h-7.3443c-1.8591 0-3.36611 1.4592-3.36611 3.2592v6.5186c0 2.1273 1.78111 3.8518 3.97811 3.8518zm.9181-4.7407c-.7606 0-1.3771.5969-1.3771 1.3333s.6165 1.3333 1.3771 1.3333c.7605 0 1.377-.5969 1.377-1.3333s-.6165-1.3333-1.377-1.3333z" fill="url(#b)"/></g></svg>